<?xml version="1.0" encoding="UTF-8" standalone="no"?>
<svg
   width="637.30756"
   height="205.34258"
   version="1.1"
   id="svg436"
   sodipodi:docname="maa-se-states-font.svg"
   xml:space="preserve"
   inkscape:version="1.2.2 (732a01da63, 2022-12-09)"
   xmlns:inkscape="http://www.inkscape.org/namespaces/inkscape"
   xmlns:sodipodi="http://sodipodi.sourceforge.net/DTD/sodipodi-0.dtd"
   xmlns="http://www.w3.org/2000/svg"
   xmlns:svg="http://www.w3.org/2000/svg"
   xmlns:rdf="http://www.w3.org/1999/02/22-rdf-syntax-ns#"
   xmlns:cc="http://creativecommons.org/ns#"
   xmlns:dc="http://purl.org/dc/elements/1.1/"><sodipodi:namedview
     id="namedview438"
     pagecolor="#ffffff"
     bordercolor="#000000"
     borderopacity="0.25"
     inkscape:showpageshadow="2"
     inkscape:pageopacity="0.0"
     inkscape:pagecheckerboard="0"
     inkscape:deskcolor="#d1d1d1"
     showgrid="false"
     inkscape:zoom="1.3253389"
     inkscape:cx="347.08104"
     inkscape:cy="35.085366"
     inkscape:window-width="1920"
     inkscape:window-height="1001"
     inkscape:window-x="-9"
     inkscape:window-y="1341"
     inkscape:window-maximized="1"
     inkscape:current-layer="svg436" /><title
     id="title2">Blank map of the United States, territories not included</title><defs
     id="defs6"><style
       type="text/css"
       id="style4">
.state {fill:#D0D0D0}                        /* default color for all states not specified below */
.borders {stroke:#FFFFFF; stroke-width:1}    /* color and width of borders between states */
.dccircle {display:yes}                      /* set display to yes to show the circle for the District of Columbia, or none to hide it */
.separator1 {stroke:#B0B0B0; stroke-width:2} /* color and width of lines around Alaska and Hawaii */

/* Individual states can be colored as follows:
.ks,.mt,.pa {fill:#0000FF}
.ca,.de {fill:#FF0000}
In this example, Kansas, Montana and Pennsylvania are colored blue, and California and Delaware are colored red.
Place this code in the empty space below. */



</style><clipPath
       clipPathUnits="userSpaceOnUse"
       id="clipPath8038"><path
         d="M 0,0 H 612 V 136.22839 H 0 Z"
         clip-rule="evenodd"
         id="path8036" /></clipPath><clipPath
       clipPathUnits="userSpaceOnUse"
       id="clipPath8934"><path
         d="M 73.5,37.5 H 261.75 V 132 H 73.5 Z"
         clip-rule="evenodd"
         id="path8932" /></clipPath><clipPath
       clipPathUnits="userSpaceOnUse"
       id="clipPath8946"><path
         d="m 346.55841,329.14667 h 216 v 139.5 h -216 z"
         clip-rule="evenodd"
         id="path8944" /></clipPath></defs><path
     class="al"
     d="m 398.81904,176.98805 1.03812,-7.23687 -0.79139,-1.27425 -1.63212,-0.84627 -2.24503,-3.00829 0.75219,-2.84503 49.05918,-0.80429 -0.50454,-2.25288 -1.36279,-1.62566 -0.3754,-1.43843 1.14973,-6.22319 -1.89131,-5.88838 0.7259,-2.54619 0.62306,-3.65948 2.52451,-3.59261 -0.10284,-1.11329 -1.60584,-1.14511 0.2804,-3.1877 -1.62659,-2.05041 -2.35433,-6.33065 -8.83716,-46.754195 -45.87472,-0.01984 1.11975,2.10622 -7.16587,66.628377 1.47393,33.45785 0.94036,-0.41922 1.28623,0.21353 0.56264,0.45103 0.80569,-0.0295 2.32528,-3.61013 0.20154,-2.29116 1.19216,-0.99938 1.3508,0.62075 2.82612,6.67331 -0.0789,0.89654 -3.48008,1.90237 3.52158,-0.0918 5.02136,-1.16448 z"
     id="path10"
     style="fill:#96c3dc;stroke:#ffffff;stroke-opacity:0.6;fill-opacity:1"><title
       id="title8">Alabama</title></path><path
     class="ga"
     d="m 521.83249,134.3029 -0.12268,1.39462 -4.72712,5.80812 -1.21291,0.0941 1.45042,0.62952 -0.17525,1.9923 -0.99292,1.01691 -1.12345,5.92435 -2.83442,5.97461 0.32282,2.03612 0.25043,5.14172 -3.61245,-0.0166 -3.92327,-1.04781 -1.6146,-1.0455 -2.31421,1.20184 -0.21907,2.49039 1.21061,2.21459 -0.87487,4.23965 -2.14449,0.41368 -0.89977,-1.18339 -0.31729,-3.24027 -50.19646,-1.1027 -2.76155,-6.26608 -0.50454,-2.25288 -1.36279,-1.62566 -0.3754,-1.43843 1.14973,-6.22319 -1.89131,-5.88838 0.7259,-2.54619 0.62306,-3.65948 2.52451,-3.59261 -0.10284,-1.11329 -1.60584,-1.14511 0.2804,-3.1877 -1.62659,-2.05041 -2.35433,-6.33065 -8.83716,-46.754195 23.06602,-0.882236 21.58057,-1.113288 -0.26611,1.883929 -1.98031,0.829666 -1.67502,3.065017 0.0853,1.312525 5.74356,4.319895 2.61629,-0.07102 2.73758,4.256252 0.24949,1.728511 3.73696,5.448407 2.44104,1.921286 1.37709,0.321905 2.05134,1.786621 0.90299,2.287927 1.85211,1.76909 1.74926,0.6558 2.45303,2.92621 -0.0231,1.40337 2.34465,3.01706 4.77923,2.72928 2.99907,6.98967 0.0623,2.71591 3.70098,2.43366 2.06979,5.00059 0.52528,3.15818 4.1488,0.76649 z"
     id="path46"
     style="fill:#8fcedc;stroke:#ffffff;stroke-opacity:0.6;fill-opacity:1"><title
       id="title44">Georgia</title></path><path
     class="nc"
     d="m 598.76324,26.629787 -29.52258,3.526653 -39.88811,3.819501 -29.5936,0.910367 -0.45565,5.179998 -1.48547,-0.231052 -1.49977,1.072709 -2.84641,4.969699 -2.49361,-1.323594 -3.7056,2.183697 -0.88132,2.030585 -1.59938,1.063947 -0.72683,-0.867023 0.0318,-1.502992 -0.77939,-0.269331 -4.27378,2.936807 -0.89562,3.334347 -4.89222,1.978932 -0.60322,1.151572 -3.41552,2.309599 -3.62997,0.182628 -4.84518,2.585386 -1.15618,4.01413 -1.37386,0.782625 -1.48547,-0.231052 -1.50853,1.172325 -0.52898,4.872389 21.58057,-1.113288 4.54956,-1.507142 1.30376,0.0143 7.64871,-3.643799 23.30353,-0.158641 0.35465,0.533127 -0.3219,1.37709 0.67102,0.360183 1.32682,-1.38908 3.02443,3.277622 -0.12821,2.598762 19.86958,-1.06302 22.90737,19.181034 4.17739,-1.841038 3.0498,-0.434433 1.69346,0.148962 0.99938,1.192157 0.97218,-1.922207 1.03581,-4.928193 2.0352,-3.736037 5.91374,-5.603362 4.39092,-3.127276 5.58076,-1.817979 2.52544,-0.179399 c 1.21622,-1.405437 4.24346,-2.762686 3.4003,-4.419047 l 2.18508,-2.016288 -0.26703,-1.52928 -1.94849,-0.673327 0.88224,1.382625 -1.20415,-0.0055 -1.03766,-1.898226 -1.37063,1.887157 -1.61137,0.05903 1.23274,-2.601989 0.84627,-1.632124 0.0549,-2.90637 -2.18277,-0.29239 0.9754,-0.817676 1.06948,0.395233 2.68085,0.336203 0.84073,-0.427977 2.29116,0.201537 2.15879,-1.717442 0.47963,-3.170166 1.41768,-1.280703 1.21291,-0.09408 1.38262,-0.882241 -0.17386,-3.729581 -1.85857,-3.978158 -2.67209,-0.435818 -1.03674,1.514984 -0.41045,-1.039966 -2.70714,-0.03736 -1.23043,0.293312 -1.99784,1.028897 -0.2638,-0.424749 -0.89654,-0.07886 -1.89822,1.037659 -2.63381,0.270252 0.11391,-1.294999 0.88455,-0.926054 0.93481,0.784932 0.99616,0.08762 1.87747,-1.94296 3.83473,-1.369249 2.18508,-2.016288 2.39077,0.2103 0.68301,1.365099 1.62336,0.945885 -0.36664,-1.538043 -0.15865,-1.620133 -2.51759,-3.333425 -0.17617,-1.420903 -0.48609,0.961104 -0.78262,-1.373862 z"
     id="path138"
     style="fill:#7abbdc;fill-opacity:1;stroke:#ffffff;stroke-opacity:0.6"
     sodipodi:nodetypes="ccccccccccccccccccccccccccccccccccccccccccccccccccccccccccccccccccccccccccccccccccccccccccccccccccccccc"><title
       id="title136">North Carolina</title></path><path
     class="sc"
     d="m 537.89133,71.56875 -19.86958,1.06302 0.12821,-2.598762 -3.02443,-3.277622 -1.32682,1.38908 -0.67102,-0.360183 0.3219,-1.37709 -0.35465,-0.533127 -23.30353,0.158641 -7.64871,3.643799 -1.30376,-0.0143 -4.54956,1.507142 -0.26611,1.883929 -1.98031,0.829666 -1.67502,3.065017 0.0853,1.312525 5.74356,4.319895 2.61629,-0.07102 2.73758,4.256252 0.24949,1.728511 3.73696,5.448407 2.44104,1.921286 1.37709,0.321905 2.05134,1.786621 0.90299,2.287927 1.85211,1.76909 1.74926,0.6558 2.45303,2.92621 -0.0231,1.40337 2.34465,3.01706 4.77923,2.72928 2.99907,6.98967 0.0623,2.71591 3.70098,2.43366 2.06979,5.00059 0.52528,3.15818 4.1488,0.76649 0.92836,-1.42413 0.59769,0.0526 1.92451,-1.3365 0.67333,-1.9485 3.3717,-1.81152 0.50915,-2.36448 -1.11652,-1.00169 0.85826,-0.62721 0.76187,0.46856 1.33005,-0.28455 1.97709,-1.93419 3.94311,-1.46011 1.80414,-2.25057 0.16096,-0.68854 5.16708,-3.96248 -0.0558,-0.50684 -0.82644,-0.87578 1.22721,-1.39784 0.79692,0.0701 0.35465,0.53312 0.76741,-0.73558 1.295,0.11391 0.72913,-1.44166 2.47516,-1.89038 0.17433,-5.40552 0.99846,-2.221051 4.12943,-5.860702 2.58354,-1.981238 2.28792,-0.902995 z"
     id="path166"
     style="fill:#8eaddc;stroke:#ffffff;stroke-opacity:0.6;fill-opacity:1"><title
       id="title164">South Carolina</title></path><path
     class="tn"
     d="m 385.76807,73.145033 45.87472,0.01984 23.06602,-0.882236 0.52898,-4.872389 1.50853,-1.172325 1.48547,0.231052 1.37386,-0.782625 1.15618,-4.01413 4.84518,-2.585386 3.62997,-0.182628 3.41552,-2.309599 0.60322,-1.151572 4.89222,-1.978932 0.89562,-3.334347 4.27378,-2.936807 0.77939,0.269331 -0.0318,1.502992 0.72683,0.867023 1.59938,-1.063947 0.88132,-2.030585 3.7056,-2.183697 2.49361,1.323594 2.84641,-4.969699 1.49977,-1.072709 1.48547,0.231052 0.45565,-5.179998 0.36018,-0.67102 -4.62612,0.095 -0.28685,0.978629 -29.078,0.754948 -5.70114,0.903916 -20.54382,-0.401695 -5.2501,0.341273 -17.4207,-0.528519 -2.66009,0.569099 -22.68832,0.01199 -0.64474,-0.65903 -3.68577,-0.324212 0.91499,3.292841 -0.67656,0.843964 -23.34181,-0.547429 -0.88455,0.926053 -0.73558,-0.767407 -0.99616,-0.08763 -0.11391,1.295 0.51007,1.048728 -0.18724,0.987391 -1.43843,0.375402 1.26318,1.616905 -0.85826,0.627208 -1.67594,-0.348193 0.51007,1.048728 1.099,1.200919 -0.0613,0.697308 -1.2392,0.392927 -1.1714,1.904682 0.047,0.606454 1.30699,1.118829 -0.4598,0.662257 -1.49423,-0.131437 -0.0438,0.498077 0.81767,0.9754 0.0295,0.805686 -1.41214,0.07656 -0.56818,0.75311 -1.61137,0.05903 -0.9754,0.817676 0.51883,0.949113 1.10453,-0.0032 0.41922,0.94035 -1.70776,1.1548 0.26702,1.529281 -1.93973,-0.772942 -0.16095,0.688545 0.30207,1.130819 -0.42152,1.368327 -1.2249,-0.910835 -0.86702,0.726823 1.08701,0.196003 -0.0318,1.502992 -0.68531,0.943579 1.0169,0.992926 -0.43028,1.467942 0.73558,0.767408 -0.78493,0.934816 -1.15157,-0.603227 -1.08931,2.112676 -1.65519,0.557107 z"
     id="path174"
     style="fill:#78aedc;stroke:#ffffff;stroke-opacity:0.6;fill-opacity:1"><title
       id="title172">Tennessee</title></path><g
     id="g8032"
     transform="matrix(1.3333333,0,0,1.3333333,668.95042,-185.55078)"><g
       id="g8034"
       clip-path="url(#clipPath8038)"><g
         id="g8040"
         transform="matrix(0.75,0,0,0.75,72,36)" /></g></g><g
     id="g8194"
     transform="translate(764.95041,110.24707)" /><g
     id="Layer_1-2"
     data-name="Layer 1"
     transform="translate(10.581012,56.661293)"
     style="fill:#012fa1;fill-opacity:1"><g
       id="tagline"
       style="fill:#012fa1;fill-opacity:1"><path
         d="m 0,82.42 h 2.62 l 2.77,3.86 2.78,-3.86 h 2.44 v 9.44 H 7.82 V 87.41 L 6.07,89.82 H 4.54 L 2.79,87.41 v 4.45 H 0 Z"
         style="fill:#012fa1;fill-opacity:1"
         id="path11323" /><path
         d="m 14.77,82.42 h 3.07 l 3.39,9.44 H 17.97 L 17.55,90.4 h -2.61 l -0.43,1.46 h -3.14 l 3.39,-9.44 z m 0.76,5.79 h 1.43 l -0.71,-2.43 -0.71,2.43 z"
         style="fill:#012fa1;fill-opacity:1"
         id="path11325" /><path
         d="m 23.28,84.83 h -2.5 v -2.41 h 8.14 v 2.41 h -2.5 v 7.04 H 23.3 v -7.04 h -0.01 z"
         style="fill:#012fa1;fill-opacity:1"
         id="path11327" /><path
         d="M 35.59,88.29 H 33.3 v 3.56 h -3.14 v -9.44 h 3.14 v 3.48 h 2.29 v -3.48 h 3.14 v 9.44 h -3.14 z"
         style="fill:#012fa1;fill-opacity:1"
         id="path11329" /><path
         d="m 40.53,82.42 h 7.08 v 2.41 h -3.94 v 1.07 h 3.47 v 2.41 h -3.47 v 1.16 h 3.94 v 2.41 h -7.08 v -9.44 0 z"
         style="fill:#012fa1;fill-opacity:1"
         id="path11331" /><path
         d="m 49.3,82.42 h 2.62 l 2.77,3.86 2.78,-3.86 h 2.44 v 9.44 h -2.79 v -4.45 l -1.75,2.41 h -1.53 l -1.75,-2.41 v 4.45 H 49.3 v -9.44 h 0.01 z"
         style="fill:#012fa1;fill-opacity:1"
         id="path11333" /><path
         d="m 64.07,82.42 h 3.07 l 3.39,9.44 H 67.27 L 66.85,90.4 h -2.61 l -0.43,1.46 h -3.14 l 3.39,-9.44 z m 0.76,5.79 h 1.43 l -0.71,-2.43 -0.71,2.43 z"
         style="fill:#012fa1;fill-opacity:1"
         id="path11335" /><path
         d="m 72.58,84.83 h -2.5 v -2.41 h 8.14 v 2.41 h -2.5 v 7.04 H 72.6 v -7.04 h -0.01 z"
         style="fill:#012fa1;fill-opacity:1"
         id="path11337" /><path
         d="m 79.46,82.42 h 3.14 v 9.44 h -3.14 z"
         style="fill:#012fa1;fill-opacity:1"
         id="path11339" /><path
         d="m 83.92,87.14 c 0,-2.78 2.19,-4.86 4.99,-4.86 1.78,0 3.18,0.75 3.89,2.06 l -2.48,1.72 c -0.44,-0.83 -0.91,-1.2 -1.59,-1.2 -0.96,0 -1.48,0.82 -1.48,2.29 0,1.47 0.52,2.29 1.48,2.29 0.67,0 1.14,-0.37 1.59,-1.2 l 2.48,1.72 c -0.7,1.31 -2.11,2.06 -3.89,2.06 -2.8,0 -4.99,-2.08 -4.99,-4.86 z"
         style="fill:#012fa1;fill-opacity:1"
         id="path11341" /><path
         d="m 96.2,82.42 h 3.07 l 3.39,9.44 H 99.4 L 98.98,90.4 h -2.61 l -0.43,1.46 H 92.8 l 3.39,-9.44 z m 0.76,5.79 h 1.43 l -0.71,-2.43 -0.71,2.43 z"
         style="fill:#012fa1;fill-opacity:1"
         id="path11343" /><path
         d="m 103.43,82.42 h 3.14 v 7.04 h 3.78 v 2.41 h -6.92 v -9.44 z"
         style="fill:#012fa1;fill-opacity:1"
         id="path11345" /><path
         d="m 117.3,82.42 h 3.07 l 3.39,9.44 h -3.26 l -0.42,-1.46 h -2.6 l -0.43,1.46 h -3.14 z m 0.76,5.79 h 1.43 l -0.71,-2.43 -0.71,2.43 z"
         style="fill:#012fa1;fill-opacity:1"
         id="path11347" /><path
         d="m 123.92,90.6 1.69,-2.08 c 0.46,0.59 1.37,1.05 2.27,1.05 0.54,0 0.88,-0.16 0.88,-0.52 0,-0.3 -0.23,-0.45 -0.76,-0.54 l -1.08,-0.22 c -1.72,-0.35 -2.66,-1.29 -2.66,-2.71 0,-1.92 1.71,-3.31 4.14,-3.31 1.54,0 2.95,0.55 3.56,1.43 l -1.86,1.89 c -0.37,-0.52 -1.07,-0.89 -1.82,-0.89 -0.53,0 -0.9,0.18 -0.9,0.54 0,0.28 0.2,0.41 0.77,0.53 l 1.07,0.22 c 1.72,0.35 2.66,1.3 2.66,2.72 0,1.9 -1.68,3.29 -4.21,3.29 -1.43,0 -3.03,-0.44 -3.75,-1.4 h -0.01 z"
         style="fill:#012fa1;fill-opacity:1"
         id="path11349" /><path
         d="m 132.59,90.6 1.69,-2.08 c 0.46,0.59 1.37,1.05 2.27,1.05 0.54,0 0.88,-0.16 0.88,-0.52 0,-0.3 -0.23,-0.45 -0.76,-0.54 l -1.08,-0.22 c -1.72,-0.35 -2.66,-1.29 -2.66,-2.71 0,-1.92 1.71,-3.31 4.14,-3.31 1.54,0 2.95,0.55 3.56,1.43 l -1.86,1.89 c -0.37,-0.52 -1.07,-0.89 -1.82,-0.89 -0.53,0 -0.9,0.18 -0.9,0.54 0,0.28 0.2,0.41 0.77,0.53 l 1.07,0.22 c 1.72,0.35 2.66,1.3 2.66,2.72 0,1.9 -1.68,3.29 -4.21,3.29 -1.43,0 -3.03,-0.44 -3.75,-1.4 h -0.01 z"
         style="fill:#012fa1;fill-opacity:1"
         id="path11351" /><path
         d="m 141.4,87.14 c 0,-2.74 2.12,-4.86 4.83,-4.86 2.71,0 4.83,2.12 4.83,4.86 0,2.74 -2.12,4.86 -4.83,4.86 -2.71,0 -4.83,-2.12 -4.83,-4.86 z m 6.32,0 c 0,-1.46 -0.48,-2.29 -1.49,-2.29 -1.01,0 -1.49,0.83 -1.49,2.29 0,1.46 0.49,2.29 1.49,2.29 1,0 1.49,-0.83 1.49,-2.29 z"
         style="fill:#012fa1;fill-opacity:1"
         id="path11353" /><path
         d="m 151.91,87.14 c 0,-2.78 2.19,-4.86 4.99,-4.86 1.78,0 3.18,0.75 3.89,2.06 l -2.48,1.72 c -0.44,-0.83 -0.91,-1.2 -1.59,-1.2 -0.96,0 -1.48,0.82 -1.48,2.29 0,1.47 0.52,2.29 1.48,2.29 0.67,0 1.14,-0.37 1.59,-1.2 l 2.48,1.72 c -0.7,1.31 -2.11,2.06 -3.89,2.06 -2.8,0 -4.99,-2.08 -4.99,-4.86 z"
         style="fill:#012fa1;fill-opacity:1"
         id="path11355" /><path
         d="m 161.93,82.42 h 3.14 v 9.44 h -3.14 z"
         style="fill:#012fa1;fill-opacity:1"
         id="path11357" /><path
         d="m 169.24,82.42 h 3.07 l 3.39,9.44 h -3.26 l -0.41,-1.46 h -2.61 l -0.43,1.46 h -3.14 z m 0.76,5.79 h 1.43 l -0.71,-2.43 z"
         style="fill:#012fa1;fill-opacity:1"
         id="path11359" /><path
         d="m 177.73,84.83 h -2.5 v -2.41 h 8.14 v 2.41 h -2.5 v 7.04 h -3.12 v -7.04 h -0.01 z"
         style="fill:#012fa1;fill-opacity:1"
         id="path11361" /><path
         d="m 184.62,82.42 h 3.14 v 9.44 h -3.14 z"
         style="fill:#012fa1;fill-opacity:1"
         id="path11363" /><path
         d="m 189.09,87.14 c 0,-2.74 2.12,-4.86 4.83,-4.86 2.71,0 4.83,2.12 4.83,4.86 0,2.74 -2.12,4.86 -4.83,4.86 -2.71,0 -4.83,-2.12 -4.83,-4.86 z m 6.32,0 c 0,-1.46 -0.49,-2.29 -1.49,-2.29 -1,0 -1.49,0.83 -1.49,2.29 0,1.46 0.48,2.29 1.49,2.29 1.01,0 1.49,-0.83 1.49,-2.29 z"
         style="fill:#012fa1;fill-opacity:1"
         id="path11365" /><path
         d="m 200.07,82.42 h 2.68 l 3.27,4.54 v -4.54 h 2.79 v 9.44 h -2.67 l -3.28,-4.54 v 4.54 h -2.79 z"
         style="fill:#012fa1;fill-opacity:1"
         id="path11367" /><path
         d="m 213.46,87.14 c 0,-2.74 2.12,-4.86 4.83,-4.86 2.71,0 4.83,2.12 4.83,4.86 0,2.74 -2.12,4.86 -4.83,4.86 -2.71,0 -4.83,-2.12 -4.83,-4.86 z m 6.32,0 c 0,-1.46 -0.48,-2.29 -1.49,-2.29 -1.01,0 -1.49,0.83 -1.49,2.29 0,1.46 0.48,2.29 1.49,2.29 1.01,0 1.49,-0.83 1.49,-2.29 z"
         style="fill:#012fa1;fill-opacity:1"
         id="path11369" /><path
         d="m 224.44,82.42 h 7.08 v 2.41 h -3.94 v 1.4 h 3.6 v 2.41 h -3.6 v 3.24 h -3.14 v -9.44 0 z"
         style="fill:#012fa1;fill-opacity:1"
         id="path11371" /><path
         d="m 238.75,82.42 h 3.07 l 3.39,9.44 h -3.26 l -0.41,-1.46 h -2.6 l -0.43,1.46 h -3.14 l 3.39,-9.44 z m 0.76,5.79 h 1.43 l -0.72,-2.43 z"
         style="fill:#012fa1;fill-opacity:1"
         id="path11373" /><path
         d="m 245.96,82.42 h 2.62 l 2.77,3.86 2.78,-3.86 h 2.44 v 9.44 h -2.79 v -4.45 l -1.75,2.41 h -1.53 l -1.75,-2.41 v 4.45 h -2.79 v -9.44 h 0.01 z"
         style="fill:#012fa1;fill-opacity:1"
         id="path11375" /><path
         d="m 258.38,82.42 h 7.08 v 2.41 h -3.94 v 1.07 h 3.47 v 2.41 h -3.47 v 1.16 h 3.94 v 2.41 h -7.08 v -9.44 0 z"
         style="fill:#012fa1;fill-opacity:1"
         id="path11377" /><path
         d="m 267.15,82.42 h 3.61 c 2.89,0 4.47,0.97 4.47,2.76 0,1.26 -0.99,2.12 -2.6,2.35 v 0.03 c 1.71,0.16 2.39,0.86 2.39,2.31 v 0.2 c 0,0.77 0.14,1.35 0.46,1.78 h -3.25 c -0.28,-0.31 -0.4,-0.82 -0.4,-1.5 v -0.29 c 0,-1.07 -0.33,-1.49 -1.22,-1.49 h -0.31 v 3.27 h -3.14 V 82.4 Z m 3.14,2.23 v 1.85 h 0.43 c 0.83,0 1.18,-0.28 1.18,-0.93 0,-0.65 -0.35,-0.93 -1.18,-0.93 h -0.43 z"
         style="fill:#012fa1;fill-opacity:1"
         id="path11379" /><path
         d="m 276.76,82.42 h 3.14 v 9.44 h -3.14 z"
         style="fill:#012fa1;fill-opacity:1"
         id="path11381" /><path
         d="m 281.22,87.14 c 0,-2.78 2.19,-4.86 4.99,-4.86 1.78,0 3.18,0.75 3.89,2.06 l -2.48,1.72 c -0.44,-0.83 -0.91,-1.2 -1.59,-1.2 -0.96,0 -1.48,0.82 -1.48,2.29 0,1.47 0.52,2.29 1.48,2.29 0.67,0 1.14,-0.37 1.59,-1.2 l 2.48,1.72 c -0.7,1.31 -2.11,2.06 -3.89,2.06 -2.8,0 -4.99,-2.08 -4.99,-4.86 z"
         style="fill:#012fa1;fill-opacity:1"
         id="path11383" /><path
         d="m 293.51,82.42 h 3.07 l 3.39,9.44 h -3.26 l -0.42,-1.46 h -2.61 l -0.43,1.46 h -3.14 l 3.39,-9.44 z m 0.76,5.79 h 1.43 l -0.72,-2.43 z"
         style="fill:#012fa1;fill-opacity:1"
         id="path11385" /></g><g
       id="main"
       style="fill:#012fa1;fill-opacity:1"><path
         d="m 99.17,0 h 11.86 L 137.07,41.51 163.11,0 h 11.2 V 73.07 H 161.67 V 24.02 L 140.28,58 h -7.09 L 111.8,24.12 V 73.05 H 99.16 V 0 Z"
         style="fill:#012fa1;fill-opacity:1"
         id="path11388" /><path
         d="m 198.01,0 h 13.86 l 26.93,73.07 h -14.75 l -5.21,-15.5 h -28.26 l -5.33,15.5 h -14.08 z m -4.32,47.49 h 22.17 L 204.78,15.05 193.7,47.49 Z"
         style="fill:#012fa1;fill-opacity:1"
         id="path11390" /><path
         d="m 259.21,0 h 13.86 L 300,73.07 h -14.75 l -5.21,-15.5 h -28.26 l -5.33,15.5 h -14.08 z m -4.32,47.49 h 22.17 L 265.98,15.05 254.9,47.49 Z"
         style="fill:#012fa1;fill-opacity:1"
         id="path11392" /><path
         d="M 63.57,0.13 H 21.58 L 0.7,36.6 21.59,73.07 H 63.76 L 84.47,36.42 Z M 23.93,4.2 51.25,15.08 19.6,33.6 23.91,4.19 h 0.01 z m -2.96,32.24 3.06,-1.78 29.25,16.92 v 3.69 L 20.98,36.45 Z m 32.41,-11.78 -6.17,-3.58 2.81,-1.65 3.37,2.06 v 3.17 z m 0,0.62 v 3.16 L 43.93,23 l 2.76,-1.61 6.7,3.89 z m -0.01,3.78 v 3.24 l -12.54,-7.47 2.57,-1.51 9.98,5.73 h -0.01 z m -0.01,3.86 v 3.02 L 37.42,26.82 40.3,25.14 Z m -0.01,3.64 v 3.06 l -19.1,-10.95 2.63,-1.54 16.48,9.42 v 0 z m -0.01,3.69 v 3.19 L 30.8,30.69 l 2.92,-1.7 z m -0.01,3.81 v 3.28 L 27.74,32.5 30.28,31.01 53.34,44.06 Z m -0.01,3.9 v 2.98 L 24.6,34.32 27.21,32.8 53.32,47.95 Z m 3.17,-9.11 13.25,-10.3 2.19,1.67 -15.46,12.05 v -3.41 h 0.02 z m 0,-0.69 v -3.42 l 10.57,-8.21 2.23,1.68 z m 0.01,-4.11 v -3.57 l 7.81,-6.06 2.32,1.75 -10.11,7.87 h -0.01 z m 0.01,-4.25 v -3.43 l 5.22,-3.88 2.12,1.6 z m 0.01,-4.1 v -3.36 l 2.51,-1.89 2.25,1.7 z m 0.01,-4.04 v -3.1 l 2.05,1.54 -2.05,1.54 v 0 z m -5.97,-2.53 2.85,-1.67 v 3.41 z m -25.66,23.23 -4.58,1.9 -0.69,-4.97 5.26,3.06 h 0.01 z m 0.59,0.35 3.67,2.14 -8.27,3.51 -0.48,-3.54 5.08,-2.12 z m 4.25,2.48 3.82,2.22 -12.08,5.22 -0.52,-3.71 8.77,-3.73 z m 4.4,2.57 3.87,2.26 -15.97,6.7 -0.48,-3.54 12.58,-5.44 v 0 z m 22.32,-4.78 15.91,-12.39 2.2,1.67 -18.12,14.12 v -3.4 z m -34.33,14.3 16.48,-6.92 3.64,2.12 -19.63,8.22 -0.47,-3.42 h -0.01 z m 20.69,-4.46 3.91,2.28 -23.54,9.86 -0.51,-3.71 z m 13.63,-5.77 18.57,-14.46 2.33,1.76 -20.91,16.06 v -3.36 z m -9.13,8.38 3.98,2.31 -27.55,11.17 -0.47,-3.42 24.05,-10.08 v 0 z M 56.44,51.1 77.8,34.69 80.09,36.43 56.42,54.79 V 51.1 h 0.01 z m 18.03,-23.03 0.83,-1.31 2.04,3.54 -2.87,-2.22 z m -0.43,-0.33 -2.13,-1.65 1.51,-2.58 1.57,2.72 -0.95,1.52 v 0 z m -2.56,-1.98 -2.16,-1.67 2.24,-3.81 1.56,2.71 -1.64,2.79 v 0 z m -2.59,-2 -2.32,-1.8 3.07,-5.01 1.6,2.79 z m -2.74,-2.13 -2.2,-1.72 3.82,-6.24 1.58,2.74 -3.19,5.22 z m -2.64,-2.05 -2.21,-1.72 4.57,-7.47 1.58,2.74 -3.94,6.45 h 0.01 z m -2.64,-2.05 -2.25,-1.74 5.33,-8.72 1.6,2.79 -4.69,7.67 z m -2.67,-2.07 -1.29,-1 5.75,-9.64 0.99,1.72 z M 54.16,12.93 30.01,3.26 h 29.9 l -5.75,9.65 z M 16.24,35.05 H 5.21 L 20.04,9.16 Z m -7.31,3.13 1.11,8.42 -4.82,-8.42 z m 0.54,0 h 3.29 l 2.26,17.1 -4.27,-7.45 -1.27,-9.65 z m 3.83,0 h 3.01 L 19.84,63.7 15.72,56.51 13.3,38.17 v 0 z m 43.59,20.23 2.69,-2.08 5.25,8.5 -2.02,3.57 -5.93,-9.97 h 0.01 z m 3.12,-2.42 2.88,-2.23 4.28,6.92 -2.04,3.6 z m 3.31,-2.57 2.91,-2.26 3.3,5.33 -2.05,3.63 -4.15,-6.71 v 0 z m 3.33,-2.58 2.92,-2.27 2.27,3.82 -2.02,3.58 -3.17,-5.14 z m 3.35,-2.6 2.73,-2.12 1.38,2.25 -1.97,3.49 -2.14,-3.6 v 0 z m 3.17,-2.45 4.29,-3.33 -3.03,5.37 z"
         style="fill:#012fa1;fill-opacity:1"
         id="path11394" /><path
         d="m 79.44,68.97 c 0,2.28 -1.79,4.07 -4.12,4.07 -2.33,0 -4.14,-1.79 -4.14,-4.07 0,-2.28 1.84,-4.02 4.14,-4.02 2.3,0 4.12,1.78 4.12,4.02 z m -7.23,0 c 0,1.78 1.33,3.21 3.14,3.21 1.81,0 3.07,-1.42 3.07,-3.19 0,-1.77 -1.3,-3.24 -3.09,-3.24 -1.79,0 -3.11,1.44 -3.11,3.21 z m 2.48,2.11 h -0.93 v -4.02 c 0.37,-0.07 0.89,-0.13 1.54,-0.13 0.76,0 1.11,0.13 1.4,0.3 0.22,0.17 0.39,0.5 0.39,0.89 0,0.44 -0.35,0.78 -0.83,0.93 v 0.05 c 0.39,0.15 0.61,0.44 0.74,0.98 0.13,0.61 0.2,0.85 0.3,1 h -1 C 76.17,70.93 76.1,70.56 75.98,70.1 75.91,69.66 75.66,69.47 75.15,69.47 h -0.44 v 1.61 H 74.7 Z m 0.02,-2.28 h 0.44 c 0.52,0 0.93,-0.17 0.93,-0.59 0,-0.37 -0.27,-0.61 -0.85,-0.61 -0.24,0 -0.42,0.02 -0.52,0.05 z"
         style="fill:#012fa1;fill-opacity:1"
         id="path11396" /></g></g><text
     xml:space="preserve"
     style="font-weight:bold;font-size:48px;line-height:1.2;font-family:'Trebuchet MS';-inkscape-font-specification:'Trebuchet MS Bold';text-align:center;text-anchor:middle;fill:#012fa1;stroke:none;stroke-width:1.5;stroke-linecap:round;stroke-linejoin:round;stroke-opacity:0.6"
     x="480.06693"
     y="91.508011"
     id="text352"><tspan
       sodipodi:role="line"
       id="tspan350"
       x="480.06693"
       y="91.508011"
       style="font-size:48px">Southeastern</tspan><tspan
       sodipodi:role="line"
       x="480.06693"
       y="149.108"
       id="tspan669"
       style="font-size:48px">Section</tspan></text><metadata
     id="metadata4434"><rdf:RDF><cc:Work
         rdf:about=""><dc:title>Blank map of the United States, territories not included</dc:title></cc:Work></rdf:RDF></metadata></svg>
