<?xml version="1.0" encoding="UTF-8" standalone="no"?>
<svg
   width="300"
   height="175"
   version="1.1"
   id="svg436"
   sodipodi:docname="maa-se-just-states.svg"
   xml:space="preserve"
   inkscape:version="1.4 (86a8ad7, 2024-10-11)"
   inkscape:export-filename="maa-se-just-states.webp"
   inkscape:export-xdpi="180"
   inkscape:export-ydpi="180"
   xmlns:inkscape="http://www.inkscape.org/namespaces/inkscape"
   xmlns:sodipodi="http://sodipodi.sourceforge.net/DTD/sodipodi-0.dtd"
   xmlns="http://www.w3.org/2000/svg"
   xmlns:svg="http://www.w3.org/2000/svg"
   xmlns:rdf="http://www.w3.org/1999/02/22-rdf-syntax-ns#"
   xmlns:cc="http://creativecommons.org/ns#"
   xmlns:dc="http://purl.org/dc/elements/1.1/"><sodipodi:namedview
     id="namedview438"
     pagecolor="#ffffff"
     bordercolor="#000000"
     borderopacity="0.25"
     inkscape:showpageshadow="2"
     inkscape:pageopacity="0.0"
     inkscape:pagecheckerboard="0"
     inkscape:deskcolor="#d1d1d1"
     showgrid="false"
     inkscape:zoom="1.3253389"
     inkscape:cx="0.75452399"
     inkscape:cy="8.6770259"
     inkscape:window-width="1920"
     inkscape:window-height="1017"
     inkscape:window-x="1912"
     inkscape:window-y="-8"
     inkscape:window-maximized="1"
     inkscape:current-layer="svg436" /><title
     id="title2">Blank map of the United States, territories not included</title><defs
     id="defs6"><style
       type="text/css"
       id="style4">
.state {fill:#D0D0D0}                        /* default color for all states not specified below */
.borders {stroke:#FFFFFF; stroke-width:1}    /* color and width of borders between states */
.dccircle {display:yes}                      /* set display to yes to show the circle for the District of Columbia, or none to hide it */
.separator1 {stroke:#B0B0B0; stroke-width:2} /* color and width of lines around Alaska and Hawaii */

/* Individual states can be colored as follows:
.ks,.mt,.pa {fill:#0000FF}
.ca,.de {fill:#FF0000}
In this example, Kansas, Montana and Pennsylvania are colored blue, and California and Delaware are colored red.
Place this code in the empty space below. */



</style><clipPath
       clipPathUnits="userSpaceOnUse"
       id="clipPath8038"><path
         d="M 0,0 H 612 V 136.22839 H 0 Z"
         clip-rule="evenodd"
         id="path8036" /></clipPath><clipPath
       clipPathUnits="userSpaceOnUse"
       id="clipPath8934"><path
         d="M 73.5,37.5 H 261.75 V 132 H 73.5 Z"
         clip-rule="evenodd"
         id="path8932" /></clipPath><clipPath
       clipPathUnits="userSpaceOnUse"
       id="clipPath8946"><path
         d="m 346.55841,329.14667 h 216 v 139.5 h -216 z"
         clip-rule="evenodd"
         id="path8944" /></clipPath></defs><g
     id="g1"
     transform="translate(14.745194,6.3987079)"><path
       class="al"
       d="m 56.872607,155.41804 1.03812,-7.23687 -0.79139,-1.27425 -1.63212,-0.84627 -2.24503,-3.00829 0.75219,-2.84503 49.059183,-0.80429 -0.50454,-2.25288 -1.36279,-1.62566 -0.3754,-1.43843 1.14973,-6.22319 -1.89131,-5.88838 0.7259,-2.54619 0.62306,-3.65948 2.52451,-3.59261 -0.10284,-1.11329 -1.60584,-1.14511 0.2804,-3.1877 -1.62659,-2.05041 -2.354333,-6.330651 -8.83716,-46.754195 -45.87472,-0.01984 1.11975,2.10622 -7.16587,66.628376 1.47393,33.45785 0.94036,-0.41922 1.28623,0.21353 0.56264,0.45103 0.80569,-0.0295 2.32528,-3.61013 0.20154,-2.29116 1.19216,-0.99938 1.3508,0.62075 2.82612,6.67331 -0.0789,0.89654 -3.48008,1.90237 3.52158,-0.0918 5.02136,-1.16448 z"
       id="path10"
       style="fill:#96c3dc;fill-opacity:1;stroke:#ffffff;stroke-opacity:0.6"><title
         id="title8">Alabama</title></path><path
       class="ga"
       d="m 179.88606,112.73289 -0.12268,1.39462 -4.72712,5.80812 -1.21291,0.0941 1.45042,0.62952 -0.17525,1.9923 -0.99292,1.01691 -1.12345,5.92435 -2.83442,5.97461 0.32282,2.03612 0.25043,5.14172 -3.61245,-0.0166 -3.92327,-1.04781 -1.6146,-1.0455 -2.31421,1.20184 -0.21907,2.49039 1.21061,2.21459 -0.87487,4.23965 -2.14449,0.41368 -0.89977,-1.18339 -0.31729,-3.24027 -50.19646,-1.1027 -2.76155,-6.26608 -0.50454,-2.25288 -1.36279,-1.62566 -0.3754,-1.43843 1.14973,-6.22319 -1.89131,-5.88838 0.7259,-2.54619 0.62306,-3.65948 2.52451,-3.59261 -0.10284,-1.11329 -1.60584,-1.14511 0.2804,-3.1877 -1.62659,-2.05041 -2.354333,-6.330651 -8.83716,-46.754195 23.066023,-0.882236 21.58057,-1.113288 -0.26611,1.883929 -1.98031,0.829666 -1.67502,3.065017 0.0853,1.312525 5.74356,4.319895 2.61629,-0.07102 2.73758,4.256252 0.24949,1.728511 3.73696,5.448407 2.44104,1.921286 1.37709,0.321905 2.05134,1.786621 0.90299,2.287925 1.85211,1.76909 1.74926,0.6558 2.45303,2.92621 -0.0231,1.40337 2.34465,3.01706 4.77923,2.72928 2.99907,6.98967 0.0623,2.715911 3.70098,2.43366 2.06979,5.00059 0.52528,3.15818 4.1488,0.76649 z"
       id="path46"
       style="fill:#8fcedc;fill-opacity:1;stroke:#ffffff;stroke-opacity:0.6"><title
         id="title44">Georgia</title></path><path
       class="nc"
       d="m 256.81681,5.0597765 -29.52258,3.526653 -39.88811,3.8195005 -29.5936,0.910367 -0.45565,5.179998 -1.48547,-0.231052 -1.49977,1.072709 -2.84641,4.969699 -2.49361,-1.323594 -3.7056,2.183697 -0.88132,2.030585 -1.59938,1.063947 -0.72683,-0.867023 0.0318,-1.502992 -0.77939,-0.269331 -4.27378,2.936807 -0.89562,3.334347 -4.89222,1.978932 -0.60322,1.151572 -3.41552,2.309599 -3.62997,0.182628 -4.84518,2.585386 -1.15618,4.01413 -1.37386,0.782625 -1.48547,-0.231052 -1.50853,1.172325 -0.52898,4.872389 21.58057,-1.113288 4.54956,-1.507142 1.30376,0.0143 7.64871,-3.643799 23.30353,-0.158641 0.35465,0.533127 -0.3219,1.37709 0.67102,0.360183 1.32682,-1.38908 3.02443,3.277622 -0.12821,2.598762 19.86958,-1.06302 22.90737,19.181034 4.17739,-1.841038 3.0498,-0.434433 1.69346,0.148962 0.99938,1.192157 0.97218,-1.922207 1.03581,-4.928193 2.0352,-3.736037 5.91374,-5.603362 4.39092,-3.127276 5.58076,-1.817979 2.52544,-0.179399 c 1.21622,-1.405437 4.24346,-2.762686 3.4003,-4.419047 l 2.18508,-2.016288 -0.26703,-1.52928 -1.94849,-0.673327 0.88224,1.382625 -1.20415,-0.0055 -1.03766,-1.898226 -1.37063,1.887157 -1.61137,0.05903 1.23274,-2.601989 0.84627,-1.632124 0.0549,-2.90637 -2.18277,-0.29239 0.9754,-0.817676 1.06948,0.395233 2.68085,0.336203 0.84073,-0.427977 2.29116,0.201537 2.15879,-1.717442 0.47963,-3.170166 1.41768,-1.280703 1.21291,-0.09408 1.38262,-0.882241 -0.17386,-3.729581 -1.85857,-3.978158 -2.67209,-0.435818 -1.03674,1.514984 -0.41045,-1.039966 -2.70714,-0.03736 -1.23043,0.293312 -1.99784,1.028897 -0.2638,-0.424749 -0.89654,-0.07886 -1.89822,1.037659 -2.63381,0.270252 0.11391,-1.294999 0.88455,-0.926054 0.93481,0.784932 0.99616,0.08762 1.87747,-1.94296 3.83473,-1.369249 2.18508,-2.016288 2.39077,0.2103 0.68301,1.365099 1.62336,0.945885 -0.36664,-1.538043 -0.15865,-1.620133 -2.51759,-3.3334245 -0.17617,-1.420903 -0.48609,0.961104 -0.78262,-1.373862 z"
       id="path138"
       style="fill:#7abbdc;fill-opacity:1;stroke:#ffffff;stroke-opacity:0.6"
       sodipodi:nodetypes="ccccccccccccccccccccccccccccccccccccccccccccccccccccccccccccccccccccccccccccccccccccccccccccccccccccccc"><title
         id="title136">North Carolina</title></path><path
       class="sc"
       d="m 195.9449,49.998739 -19.86958,1.06302 0.12821,-2.598762 -3.02443,-3.277622 -1.32682,1.38908 -0.67102,-0.360183 0.3219,-1.37709 -0.35465,-0.533127 -23.30353,0.158641 -7.64871,3.643799 -1.30376,-0.0143 -4.54956,1.507142 -0.26611,1.883929 -1.98031,0.829666 -1.67502,3.065017 0.0853,1.312525 5.74356,4.319895 2.61629,-0.07102 2.73758,4.256252 0.24949,1.728511 3.73696,5.448407 2.44104,1.921286 1.37709,0.321905 2.05134,1.786621 0.90299,2.287928 1.85211,1.76909 1.74926,0.6558 2.45303,2.92621 -0.0231,1.40337 2.34465,3.01706 4.77923,2.72928 2.99907,6.98967 0.0623,2.715911 3.70098,2.43366 2.06979,5.00059 0.52528,3.15818 4.1488,0.76649 0.92836,-1.42413 0.59769,0.0526 1.92451,-1.3365 0.67333,-1.9485 3.3717,-1.81152 0.50915,-2.36448 -1.11652,-1.00169 0.85826,-0.62721 0.76187,0.46856 1.33005,-0.28455 1.97709,-1.93419 3.94311,-1.460111 1.80414,-2.25057 0.16096,-0.68854 5.16708,-3.96248 -0.0558,-0.50684 -0.82644,-0.87578 1.22721,-1.39784 0.79692,0.0701 0.35465,0.53312 0.76741,-0.73558 1.295,0.11391 0.72913,-1.44166 2.47516,-1.89038 0.17433,-5.40552 0.99846,-2.221052 4.12943,-5.860702 2.58354,-1.981238 2.28792,-0.902995 z"
       id="path166"
       style="fill:#8eaddc;fill-opacity:1;stroke:#ffffff;stroke-opacity:0.6"><title
         id="title164">South Carolina</title></path><path
       class="tn"
       d="m 43.821637,51.575022 45.87472,0.01984 23.066023,-0.882236 0.52898,-4.872389 1.50853,-1.172325 1.48547,0.231052 1.37386,-0.782625 1.15618,-4.01413 4.84518,-2.585386 3.62997,-0.182628 3.41552,-2.309599 0.60322,-1.151572 4.89222,-1.978932 0.89562,-3.334347 4.27378,-2.936807 0.77939,0.269331 -0.0318,1.502992 0.72683,0.867023 1.59938,-1.063947 0.88132,-2.030585 3.7056,-2.183697 2.49361,1.323594 2.84641,-4.969699 1.49977,-1.072709 1.48547,0.231052 0.45565,-5.179998 0.36018,-0.67102 -4.62612,0.095 -0.28685,0.978629 -29.078,0.754948 -5.70114,0.903916 -20.543823,-0.401695 -5.2501,0.341273 -17.4207,-0.528519 -2.66009,0.569099 -22.68832,0.01199 -0.64474,-0.65903 -3.68577,-0.324212 0.91499,3.292841 -0.67656,0.843964 -23.34181,-0.547429 -0.88455,0.926053 -0.73558,-0.767407 -0.99616,-0.08763 -0.11391,1.295 0.51007,1.048728 -0.18724,0.987391 -1.43843,0.375402 1.26318,1.616905 -0.85826,0.627208 -1.67594,-0.348193 0.51007,1.048728 1.099,1.200919 -0.0613,0.697308 -1.2392,0.392927 -1.1714,1.904682 0.047,0.606454 1.30699,1.118829 -0.4598,0.662257 -1.49423,-0.131437 -0.0438,0.498077 0.81767,0.9754 0.0295,0.805686 -1.41214,0.07656 -0.56818,0.75311 -1.61137,0.05903 -0.9754,0.817676 0.51883,0.949113 1.10453,-0.0032 0.41922,0.94035 -1.70776,1.1548 0.26702,1.529281 -1.93973,-0.772942 -0.16095,0.688545 0.30207,1.130819 -0.42152,1.368327 -1.2249003,-0.910835 -0.86702,0.726823 1.08701,0.196003 -0.0318,1.502992 -0.68531,0.943579 1.0169,0.992926 -0.43028,1.467942 0.7355803,0.767408 -0.7849303,0.934816 -1.15157,-0.603227 -1.08931,2.112676 -1.6551901,0.557107 z"
       id="path174"
       style="fill:#78aedc;fill-opacity:1;stroke:#ffffff;stroke-opacity:0.6"><title
         id="title172">Tennessee</title></path></g><g
     id="g8032"
     transform="matrix(1.3333333,0,0,1.3333333,321.72232,-211.64793)"><g
       id="g8034"
       clip-path="url(#clipPath8038)"><g
         id="g8040"
         transform="matrix(0.75,0,0,0.75,72,36)" /></g></g><g
     id="g8194"
     transform="translate(417.72231,84.149915)" /><metadata
     id="metadata4434"><rdf:RDF><cc:Work
         rdf:about=""><dc:title>Blank map of the United States, territories not included</dc:title></cc:Work></rdf:RDF></metadata></svg>
